<svg xmlns="http://www.w3.org/2000/svg" xmlns:xlink="http://www.w3.org/1999/xlink" width="64" height="64" viewBox="0 0 64 64">
  <defs>
    <clipPath id="clip-path">
      <rect id="Rechteck_10994" data-name="Rechteck 10994" width="37" height="55.893" fill="#b2b2b2"/>
    </clipPath>
    <clipPath id="clip-icon-traubenart">
      <rect width="64" height="64"/>
    </clipPath>
  </defs>
  <g id="icon-traubenart" clip-path="url(#clip-icon-traubenart)">
    <g id="icon-wine02" transform="translate(14 4)">
      <g id="Gruppe_34334" data-name="Gruppe 34334" clip-path="url(#clip-path)">
        <path id="Pfad_166027" data-name="Pfad 166027" d="M0,28.514a6.836,6.836,0,0,0,6.789,6.833A6.821,6.821,0,0,0,12.6,45.641a6.824,6.824,0,1,0,11.8,0,6.821,6.821,0,0,0,5.81-10.295,6.831,6.831,0,0,0,.835-13.605l.353-.272c.409-.314.762-.585.978-.783l.845-.773-.888-.723c-.059-.047-.12-.1-.183-.144l-.12-.094c1.59-2.429,1.355-5.993,1.24-7.061l-.2-1.866-1.423,1.223a15.915,15.915,0,0,1-3.042,2.265l-.029-.07c-.031-.076-.063-.153-.1-.23l-.485-1.094-.981.684a19.952,19.952,0,0,1-2.319,1.239,19.158,19.158,0,0,1,.84-4.556l.937-2.2-2.212.889c-.164.066-.315.129-.454.187a3.54,3.54,0,0,1-.816.284.151.151,0,0,1-.061-.011C22.655,8.428,21.86,7.3,19.623,2.1L18.717,0l-.906,2.1C15.574,7.3,14.78,8.428,14.542,8.617a.2.2,0,0,1-.1.034,3.521,3.521,0,0,1-.815-.284c-.139-.058-.29-.122-.454-.187l-2.212-.889.937,2.2a19.118,19.118,0,0,1,.839,4.55A19.181,19.181,0,0,1,10.421,12.8l-.981-.684-.485,1.094c-.034.077-.066.154-.1.229-.009.022-.018.045-.029.069a15.757,15.757,0,0,1-3.042-2.263L4.363,10.024l-.2,1.866c-.115,1.068-.35,4.631,1.24,7.061l-.119.094-.183.144-.888.723.845.773c.216.2.568.468.977.782l.305.236A6.834,6.834,0,0,0,0,28.514M9.036,15.558a1.49,1.49,0,0,0,1.207-.571,10,10,0,0,0,3.262,1.32,1.2,1.2,0,0,0,.566-.134c.611-.323.841-.949.5-3.632-.076-.592-.185-1.273-.317-1.923a2.165,2.165,0,0,0,1.206-.251c.686-.36,1.453-1.4,3.26-5.417,1.807,4.021,2.574,5.058,3.26,5.417a2.16,2.16,0,0,0,1.205.251c-.133.649-.241,1.331-.317,1.923-.344,2.683-.114,3.309.5,3.632a1.2,1.2,0,0,0,.566.134,10,10,0,0,0,3.261-1.32,1.49,1.49,0,0,0,1.207.571c.609,0,1.371-.287,2.972-1.527a7.519,7.519,0,0,1-1.122,4.025,1.424,1.424,0,0,0-.028,1.826L30.2,19.9c-1.389,1.068-2.008,1.591-2.182,2.135a6.85,6.85,0,0,0-3.677,2.956,6.826,6.826,0,0,0-4.878-3.237l-.959-7.6-.959,7.6a6.826,6.826,0,0,0-4.755,3.035,1.84,1.84,0,0,0-.343-.147,6.868,6.868,0,0,0-2.979-2.43c-.089-.615-.689-1.13-2.227-2.312l-.022-.017a1.424,1.424,0,0,0-.029-1.826,7.515,7.515,0,0,1-1.122-4.025c1.6,1.24,2.363,1.527,2.972,1.527M35.026,28.514a4.851,4.851,0,1,1-4.851-4.858,4.86,4.86,0,0,1,4.851,4.858M24.337,43.667a4.858,4.858,0,1,1,4.851-4.858,4.86,4.86,0,0,1-4.851,4.858M13.649,49.058A4.851,4.851,0,1,1,18.5,53.916a4.86,4.86,0,0,1-4.851-4.858m-.987-5.391a4.858,4.858,0,1,1,4.851-4.858,4.86,4.86,0,0,1-4.851,4.858M18.5,23.655a4.858,4.858,0,1,1-4.851,4.858A4.86,4.86,0,0,1,18.5,23.655m-11.675,0a4.858,4.858,0,1,1-4.851,4.858,4.86,4.86,0,0,1,4.851-4.858" transform="translate(0 0)" fill="#b2b2b2"/>
      </g>
    </g>
  </g>
</svg>
