<svg xmlns="http://www.w3.org/2000/svg" xmlns:xlink="http://www.w3.org/1999/xlink" width="64" height="64" viewBox="0 0 64 64">
  <defs>
    <clipPath id="clip-path">
      <rect id="Rechteck_10984" data-name="Rechteck 10984" width="56.662" height="45" fill="#b2b2b2"/>
    </clipPath>
    <clipPath id="clip-icon-flaschen">
      <rect width="64" height="64"/>
    </clipPath>
  </defs>
  <g id="icon-flaschen" clip-path="url(#clip-icon-flaschen)">
    <g id="icon-bottles" transform="translate(4 10)">
      <g id="Gruppe_34321" data-name="Gruppe 34321" clip-path="url(#clip-path)">
        <path id="Pfad_166008" data-name="Pfad 166008" d="M46.2,13.67c.434-.529,1.027-1.252,1.3-1.252h8.932a1.013,1.013,0,0,1,.58.112,2.973,2.973,0,0,0,1.489.323,2.576,2.576,0,0,0,1.837-.87h.572c.775,0,1.7-.587,1.7-3.383s-.925-3.383-1.7-3.383h-.574a2.58,2.58,0,0,0-1.835-.87,2.974,2.974,0,0,0-1.489.323,1.013,1.013,0,0,1-.58.112H47.5c-.265,0-.895-.756-1.311-1.256C45.015,2.123,43.247,0,39.942,0H15.056c-2.623,0-3.015,5.39-3.015,8.6,0,.837.027,1.821.113,2.819H14.2c-.081-.813-.132-1.75-.132-2.815,0-3.977.692-6.21,1.1-6.624h5.808V7.829H38.108V1.982h1.833c2.344,0,3.581,1.486,4.673,2.8C45.465,5.8,46.269,6.765,47.5,6.765h8.932a2.982,2.982,0,0,0,1.489-.322,1,1,0,0,1,.58-.112c.11,0,.359.207.489.4l.3.467H60.45a7.468,7.468,0,0,1,0,2.8H59.281l-.3.471c-.084.133-.352.4-.487.4a1.01,1.01,0,0,1-.58-.112,2.975,2.975,0,0,0-1.489-.323H47.5c-1.244,0-2.037.967-2.879,1.991a13.318,13.318,0,0,1-1.347,1.479,15.121,15.121,0,0,1,1.391,1.435A15.162,15.162,0,0,0,46.2,13.67M36.083,5.847H23V1.981H36.083Z" transform="translate(-5.944 0)" fill="#b2b2b2"/>
        <path id="Pfad_166009" data-name="Pfad 166009" d="M33.922,28.051H9.036c-2.623,0-3.015,5.388-3.015,8.6,0,.837.027,1.822.113,2.821H8.178c-.082-.816-.132-1.754-.132-2.823,0-3.973.692-6.2,1.1-6.617h5.809V35.88H32.088V30.033h1.834c2.343,0,3.581,1.486,4.673,2.8.851,1.021,1.654,1.986,2.881,1.986h8.932a2.969,2.969,0,0,0,1.489-.324,1.017,1.017,0,0,1,.58-.111c.109,0,.359.207.489.4l.3.468H54.43a7.448,7.448,0,0,1,0,2.8l-1.161.01-.3.453c-.121.183-.372.406-.492.406a1.012,1.012,0,0,1-.58-.112,2.975,2.975,0,0,0-1.489-.323H41.476c-1.243,0-2.037.967-2.879,1.991a13.235,13.235,0,0,1-1.348,1.479,15.243,15.243,0,0,1,1.391,1.435,15.178,15.178,0,0,0,1.535-1.673c.434-.528,1.028-1.251,1.3-1.251h8.932a1.007,1.007,0,0,1,.58.112,2.981,2.981,0,0,0,1.489.323,2.573,2.573,0,0,0,1.836-.87h.573c.776,0,1.7-.587,1.7-3.383s-.924-3.383-1.7-3.383h-.574a2.581,2.581,0,0,0-1.835-.87,2.976,2.976,0,0,0-1.489.323,1.006,1.006,0,0,1-.58.112H41.476c-.265,0-.9-.756-1.311-1.256-1.17-1.4-2.938-3.528-6.243-3.528M30.062,33.9H16.979V30.033H30.062Z" transform="translate(-2.972 -14.152)" fill="#b2b2b2"/>
        <path id="Pfad_166010" data-name="Pfad 166010" d="M34.144,59.63c-1.17-1.4-2.937-3.527-6.243-3.527H3.015C.392,56.1,0,61.491,0,64.7s.392,8.6,3.015,8.6H27.9c3.352,0,5.1-2.126,6.254-3.532.434-.528,1.027-1.251,1.3-1.251h8.932a1.015,1.015,0,0,1,.58.111,2.967,2.967,0,0,0,1.489.324,2.577,2.577,0,0,0,1.837-.87h.572c.775,0,1.7-.587,1.7-3.383s-.925-3.383-1.7-3.383h-.574a2.58,2.58,0,0,0-1.835-.869,2.968,2.968,0,0,0-1.489.323,1.014,1.014,0,0,1-.58.112H35.455c-.265,0-.895-.756-1.311-1.257m11.733,2.915a1.011,1.011,0,0,1,.579-.111c.11,0,.359.207.49.4l.3.467h1.166a7.45,7.45,0,0,1,0,2.8l-1.16.009-.3.453c-.121.184-.372.407-.493.407a1.011,1.011,0,0,1-.579-.112,2.972,2.972,0,0,0-1.49-.323H35.455c-1.244,0-2.037.967-2.879,1.991C31.5,69.84,30.283,71.323,27.9,71.323H3.125c-.408-.415-1.1-2.648-1.1-6.627s.692-6.2,1.1-6.612H8.933v5.847H26.067V58.085H27.9c2.343,0,3.581,1.486,4.673,2.8.851,1.021,1.654,1.986,2.881,1.986h8.932a2.971,2.971,0,0,0,1.49-.324m-21.835-.6H10.958V58.085H24.042Z" transform="translate(0 -28.305)" fill="#b2b2b2"/>
      </g>
    </g>
  </g>
</svg>
