<?xml version="1.0" encoding="utf-8"?>
<!-- Generator: Adobe Illustrator 27.5.0, SVG Export Plug-In . SVG Version: 6.00 Build 0)  -->
<svg version="1.1" xmlns="http://www.w3.org/2000/svg" xmlns:xlink="http://www.w3.org/1999/xlink" x="0px" y="0px"
	 viewBox="0 0 4975 4975" style="enable-background:new 0 0 4975 4975;" xml:space="preserve">
<g id="Layer_1">
	<radialGradient id="SVGID_1_" cx="2487.4998" cy="2487.5" r="3776.8708" gradientUnits="userSpaceOnUse">
		<stop  offset="0.6061" style="stop-color:#FFFFFF"/>
		<stop  offset="0.6641" style="stop-color:#FAFAFA"/>
		<stop  offset="0.7306" style="stop-color:#ECEDED"/>
		<stop  offset="0.8013" style="stop-color:#D5D6D7"/>
		<stop  offset="0.875" style="stop-color:#B5B6B7"/>
		<stop  offset="0.9502" style="stop-color:#8C8D8F"/>
		<stop  offset="1" style="stop-color:#6D6E71"/>
	</radialGradient>
	<rect x="0" style="fill:url(#SVGID_1_);" width="4975" height="4975"/>
</g>
<g id="Isolation_Mode">
	<g>
		
			<radialGradient id="SVGID_00000097500407953111112320000012724480885559035815_" cx="2538.9902" cy="54018.0117" r="964.6572" gradientTransform="matrix(1 0 0 0.1803 0 -5684.2993)" gradientUnits="userSpaceOnUse">
			<stop  offset="0" style="stop-color:#808285"/>
			<stop  offset="0.0444" style="stop-color:#8C8E91"/>
			<stop  offset="0.2096" style="stop-color:#B5B6B8"/>
			<stop  offset="0.3713" style="stop-color:#D5D6D7"/>
			<stop  offset="0.5266" style="stop-color:#ECEDED"/>
			<stop  offset="0.6726" style="stop-color:#FAFAFA"/>
			<stop  offset="0.8" style="stop-color:#FFFFFF"/>
		</radialGradient>
		
			<ellipse style="fill:url(#SVGID_00000097500407953111112320000012724480885559035815_);" cx="2538.991" cy="4055.148" rx="1033.294" ry="206.84"/>
		<g>
			<path d="M2608.049,2035.506c35.027-7.305,69.261-16.649,102.234-28.724c32.954-12.107,64.658-26.759,94.606-44.033
				c59.952-34.463,112.744-79.333,156.147-131.526c43.463-52.164,77.631-111.528,101.728-174.505
				c24.065-62.984,38.084-129.7,40.718-196.601c0.033-0.836,0.096-1.665,0.188-2.483l0.02-0.165
				c8.022-69.686,5.74-140.827-3.909-211.383c-9.633-70.614-26.636-140.685-48.432-209.601
				c-21.854-68.933-48.566-136.747-78.712-203.371c-30.219-66.626-63.564-132.168-100.646-196.319
				c12.663,13.581,24.495,27.907,36.157,42.375c5.781,7.272,11.479,14.614,17.123,22.004c5.641,7.392,11.129,14.896,16.605,22.417
				c21.871,30.112,42.437,61.222,61.814,93.125c19.366,31.911,37.492,64.651,54.284,98.152
				c16.777,33.506,32.27,67.76,46.134,102.773c13.889,35.001,26.242,70.732,36.702,107.144
				c10.512,36.395,19.066,73.488,25.469,111.098c3.162,18.811,5.777,37.75,7.786,56.792c1.943,19.046,3.381,38.188,4.038,57.397
				c1.362,38.411,0.024,77.09-4.517,115.534l0.207-2.646c-3.17,75.339-20.316,149.637-49.537,218.602
				c-14.603,34.492-32.301,67.631-52.791,98.894c-20.533,31.231-43.867,60.592-69.791,87.374
				c-25.921,26.775-54.346,51.048-84.863,72.096c-30.496,21.069-63.02,38.969-96.847,53.278
				c-33.826,14.312-68.924,25.085-104.515,32.094C2679.879,2032.371,2643.838,2035.853,2608.049,2035.506z"/>
			<path d="M2540.351,3635.053c-3.97-33.317-7.085-66.636-9.934-99.955c-2.898-33.319-5.372-66.639-7.638-99.959
				c-4.477-66.641-8.018-133.282-10.737-199.926c-2.765-66.644-4.729-133.288-6.074-199.934
				c-1.348-66.646-2.061-133.293-2.191-199.94c-0.142-66.647,0.334-133.296,1.439-199.946c1.116-66.649,2.821-133.301,5.366-199.953
				c1.242-33.326,2.696-66.652,4.377-99.979c1.67-33.326,3.549-66.653,5.695-99.981c2.159-33.328,4.532-66.655,7.33-99.984
				c2.747-33.329,5.767-66.658,9.647-99.988c3.994,33.317,7.127,66.636,9.987,99.955c2.911,33.319,5.397,66.639,7.67,99.959
				c2.26,33.32,4.252,66.641,6.035,99.962c1.794,33.32,3.361,66.642,4.717,99.964c2.771,66.643,4.703,133.287,6.046,199.934
				c1.332,66.646,2.034,133.292,2.119,199.94c0.096,66.647-0.391,133.296-1.512,199.946c-1.119,66.65-2.856,133.301-5.395,199.953
				c-2.493,66.652-5.808,133.306-10.058,199.961c-2.152,33.328-4.513,66.656-7.298,99.984
				C2547.209,3568.393,2544.207,3601.723,2540.351,3635.053z"/>
			<path d="M2065.256,3757.301c19.655-7.553,39.311-13.357,58.967-18.828c19.655-5.348,39.311-10.072,58.966-14.285
				c19.655-4.213,39.311-7.913,58.966-11.216c9.828-1.695,19.655-3.156,29.483-4.67c9.828-1.374,19.655-2.823,29.483-4.023
				c39.311-5.083,78.622-8.559,117.933-10.911c39.311-2.329,78.622-3.455,117.934-3.401c39.311,0.033,78.621,1.181,117.933,3.54
				l14.741,0.904l14.742,1.094c9.827,0.669,19.655,1.626,29.482,2.462c19.656,1.877,39.312,3.929,58.967,6.505
				c9.828,1.193,19.656,2.656,29.483,4.029l14.741,2.256c4.914,0.73,9.828,1.608,14.742,2.404
				c19.655,3.301,39.311,6.993,58.967,11.191c19.655,4.224,39.311,8.846,58.966,14.279c19.655,5.34,39.312,11.188,58.967,18.67
				l1.289,0.49c1.983,0.755,2.979,2.975,2.225,4.957c-0.573,1.507-1.995,2.443-3.514,2.475l-29.483,0.596l-29.483,0.449
				l-58.966,0.887l-117.934,1.103l-29.482,0.271l-29.484,0.115l-58.966,0.18l-117.933,0.357l-117.934-0.352l-58.966-0.18
				l-29.483-0.105l-29.483-0.272l-117.933-1.105l-58.966-0.892l-29.483-0.451l-29.483-0.6c-2.12-0.043-3.804-1.797-3.761-3.916
				c0.033-1.607,1.047-2.963,2.458-3.507L2065.256,3757.301z"/>
			<path d="M2205.99,636.796c-37.112,64.129-70.474,129.666-100.707,196.287c-30.162,66.62-56.868,134.442-78.729,203.375
				c-21.783,68.925-38.793,138.997-48.413,209.618c-9.614,70.565-11.893,141.708-3.841,211.391l0.007,0.06
				c0.097,0.84,0.165,1.759,0.201,2.591c2.644,66.686,16.585,133.183,40.502,195.987c23.947,62.798,57.908,122.009,101.083,174.118
				c43.131,52.125,95.584,97.022,155.199,131.611c29.779,17.337,61.313,32.08,94.104,44.297
				c32.812,12.185,66.888,21.664,101.77,29.121c-35.679,0.228-71.596-3.372-107.033-10.548
				c-35.457-7.114-70.41-17.976-104.084-32.357c-33.675-14.38-66.042-32.325-96.382-53.42
				c-30.362-21.071-58.639-45.339-84.411-72.097c-25.793-26.75-48.972-56.083-69.398-87.244
				c-20.357-31.209-37.965-64.263-52.468-98.669c-29.042-68.785-46.072-142.857-49.209-217.955l0.208,2.65
				c-4.525-38.447-5.855-77.125-4.491-115.535c0.685-19.208,2.1-38.35,4.049-57.396c2.039-19.038,4.616-37.981,7.806-56.787
				c3.222-18.8,6.899-37.487,11.202-56c2.135-9.259,4.388-18.483,6.753-27.669c2.395-9.18,4.906-18.32,7.523-27.421
				c5.2-18.212,10.978-36.227,17.063-54.099c6.174-17.845,12.662-35.55,19.647-53.037c13.869-35.009,29.349-69.266,46.131-102.769
				c16.792-33.5,34.914-66.239,54.275-98.152c19.373-31.904,39.93-63.018,61.793-93.133c5.475-7.522,10.957-15.029,16.6-22.42
				c5.642-7.391,11.333-14.737,17.114-22.008C2181.508,664.712,2193.336,650.383,2205.99,636.796z"/>
		</g>
		<path style="fill:#ED1C24;" d="M2046.286,1336.151c0.479,4.379,0.917,8.73,1.479,13.073c0.516,4.34,1.067,8.668,1.678,12.983
			c1.223,8.631,2.519,17.216,3.971,25.758c2.881,17.083,6.214,33.995,10.039,50.71c7.609,33.429,17.106,66.091,28.692,97.564
			c11.589,31.465,25.294,61.736,41.375,90.148c16.088,28.401,34.516,54.941,55.312,78.904c20.824,23.939,43.925,45.354,69.123,63.71
			c12.55,9.242,25.686,17.626,39.169,25.4c6.754,3.869,13.626,7.541,20.603,11.019c6.958,3.512,14.016,6.845,21.175,9.98
			c28.642,12.527,58.699,22.272,89.675,29.464c15.488,3.589,31.181,6.665,47.066,9.048c7.939,1.201,15.91,2.337,23.926,3.281
			c4.007,0.478,8.022,0.92,12.047,1.328l1.51,0.149l0.755,0.075l0.378,0.038c0.646,0.054-4.296-0.323-2.011-0.155l3.168,0.152
			l5.962,0.244c16.073,0.651,32.093,0.74,48.005,0.119c15.916-0.512,31.729-1.732,47.381-3.64
			c15.666-1.821,31.151-4.48,46.439-7.772c15.299-3.267,30.332-7.437,45.138-12.221c7.396-2.414,14.718-5.036,21.955-7.868
			c7.242-2.819,14.425-5.794,21.505-9.009c14.143-6.456,28-13.601,41.41-21.608c26.869-15.938,52.094-35.057,75.451-56.792
			c11.639-10.905,22.891-22.396,33.552-34.547c10.744-12.088,20.905-24.822,30.652-37.994
			c19.438-26.386,36.891-54.739,52.425-84.469c15.523-29.74,29.184-60.85,40.756-93.007c5.795-16.079,11.052-32.427,15.618-49.045
			c2.29-8.31,4.364-16.692,6.215-25.157c0.924-4.233,1.753-8.491,2.472-12.778c0.76-4.289,1.353-8.603,1.79-12.983
			c2.029,8.584,3.033,17.445,3.729,26.292c0.697,8.862,0.924,17.756,0.908,26.656c-0.07,17.802-1.281,35.615-3.314,53.369
			c-4.143,35.5-11.648,70.778-22.343,105.356c-10.711,34.57-24.667,68.458-42.101,100.946c-8.69,16.258-18.334,32.103-28.79,47.524
			c-10.536,15.357-21.877,30.305-34.206,44.535c-12.266,14.288-25.512,27.848-39.529,40.685c-7.01,6.417-14.274,12.58-21.699,18.568
			c-7.435,5.976-15.04,11.774-22.876,17.264c-15.645,11.017-31.983,21.15-48.948,30.139c-8.476,4.503-17.074,8.788-25.812,12.765
			c-8.743,3.962-17.601,7.667-26.55,11.117c-17.884,6.945-36.204,12.639-54.686,17.434c-18.493,4.771-37.211,8.387-55.967,11.17
			c-18.771,2.701-37.599,4.429-56.381,5.368c-18.787,0.829-37.525,0.875-56.154,0.162l-7.049-0.33l-3.336-0.179
			c2.016,0.157-3.197-0.237-2.821-0.215l-0.433-0.045l-0.864-0.091l-1.729-0.182c-4.611-0.494-9.223-1.028-13.834-1.605
			c-9.221-1.165-18.448-2.452-27.652-4.013c-18.403-3.132-36.786-6.916-55.009-11.678c-36.432-9.497-72.374-22.479-106.543-39.645
			c-8.54-4.287-16.978-8.805-25.28-13.578c-8.284-4.807-16.438-9.854-24.44-15.138c-16.031-10.53-31.33-22.193-45.897-34.649
			c-29.056-25.024-54.816-53.681-76.306-84.821c-10.813-15.522-20.494-31.709-29.268-48.231
			c-8.696-16.573-16.45-33.512-23.16-50.751c-13.467-34.462-23.053-69.927-29.265-105.59c-6.206-35.674-9.068-71.565-8.916-107.188
			c0.106-17.814,0.95-35.565,2.641-53.191c0.859-8.813,1.889-17.594,3.222-26.327c0.667-4.366,1.369-8.721,2.15-13.059
			C2044.452,1344.762,2045.295,1340.438,2046.286,1336.151z"/>
	</g>
</g>
</svg>
