<svg xmlns="http://www.w3.org/2000/svg" xmlns:xlink="http://www.w3.org/1999/xlink" width="64" height="64" viewBox="0 0 64 64">
  <defs>
    <clipPath id="clip-icon-volprozent">
      <rect width="64" height="64"/>
    </clipPath>
  </defs>
  <g id="icon-volprozent" clip-path="url(#clip-icon-volprozent)">
    <g id="Gruppe_34620" data-name="Gruppe 34620" transform="translate(-0.682 0.283)">
      <path id="Pfad_166180" data-name="Pfad 166180" d="M34.144,59.63c-1.17-1.4-2.937-3.527-6.243-3.527H3.015C.392,56.1,0,61.491,0,64.7s.392,8.6,3.015,8.6H27.9c3.352,0,5.1-2.126,6.254-3.532.434-.528,1.027-1.251,1.3-1.251h8.932a1.015,1.015,0,0,1,.58.111,2.967,2.967,0,0,0,1.489.324,2.577,2.577,0,0,0,1.837-.87h.572c.775,0,1.7-.587,1.7-3.383s-.925-3.383-1.7-3.383h-.574a2.58,2.58,0,0,0-1.835-.869,2.968,2.968,0,0,0-1.489.323,1.014,1.014,0,0,1-.58.112H35.455c-.265,0-.895-.756-1.311-1.257m11.733,2.915a1.011,1.011,0,0,1,.579-.111c.11,0,.359.207.49.4l.3.467h1.166a7.45,7.45,0,0,1,0,2.8l-1.16.009-.3.453c-.121.184-.372.407-.493.407a1.011,1.011,0,0,1-.579-.112,2.972,2.972,0,0,0-1.49-.323H35.455c-1.244,0-2.037.967-2.879,1.991C31.5,69.84,30.283,71.323,27.9,71.323H3.125c-.408-.415-1.1-2.648-1.1-6.627s.692-6.2,1.1-6.612H8.933v5.847H26.067V58.085H27.9c2.343,0,3.581,1.486,4.673,2.8.851,1.021,1.654,1.986,2.881,1.986h8.932a2.971,2.971,0,0,0,1.49-.324m-21.835-.6H10.958V58.085H24.042Z" transform="translate(-38.421 57.283) rotate(-90)" fill="#b2b2b2"/>
      <path id="Pfad_166181" data-name="Pfad 166181" d="M3.828,14.079a2.887,2.887,0,0,1-2.033-.684A2.7,2.7,0,0,1,.972,11.5q-.02-.337-.02-.873,0-.575.02-.932a2.845,2.845,0,0,1,.783-1.953,2.8,2.8,0,0,1,2.072-.724A2.8,2.8,0,0,1,5.9,7.742,2.845,2.845,0,0,1,6.683,9.7q.04.793.04,1.011,0,.2-.04.793a2.613,2.613,0,0,1-.813,1.894A2.924,2.924,0,0,1,3.828,14.079ZM2.162,21a.424.424,0,0,1-.3-.109.372.372,0,0,1-.119-.288.341.341,0,0,1,.079-.218l9.8-12.891a1.125,1.125,0,0,1,.288-.3.7.7,0,0,1,.367-.079h.654a.416.416,0,0,1,.307.109.389.389,0,0,1,.109.288.341.341,0,0,1-.079.218L3.49,20.623a1.125,1.125,0,0,1-.288.3A.751.751,0,0,1,2.816,21Zm1.666-8.151a1.243,1.243,0,0,0,1.041-.416,1.906,1.906,0,0,0,.387-1.011q.04-.714.04-.833,0-.178-.04-.813a1.739,1.739,0,0,0-.387-1.031,1.278,1.278,0,0,0-1.041-.416A1.248,1.248,0,0,0,2.8,8.744,1.776,1.776,0,0,0,2.42,9.775q-.02.317-.02.813,0,.476.02.833a1.877,1.877,0,0,0,.387,1.021A1.233,1.233,0,0,0,3.828,12.849Zm7.417,8.27A2.79,2.79,0,0,1,9.212,20.4a2.85,2.85,0,0,1-.823-1.934q-.02-.337-.02-.873,0-.575.02-.932a2.92,2.92,0,0,1,.8-1.953,2.776,2.776,0,0,1,2.053-.724,2.8,2.8,0,0,1,2.072.724,2.92,2.92,0,0,1,.8,1.953q.04.714.04.932,0,.2-.04.873a2.669,2.669,0,0,1-2.876,2.658Zm0-1.309a1.243,1.243,0,0,0,1.041-.416,1.906,1.906,0,0,0,.387-1.011q.04-.714.04-.833,0-.178-.04-.813A1.776,1.776,0,0,0,12.3,15.7a1.273,1.273,0,0,0-1.051-.416,1.248,1.248,0,0,0-1.031.416,1.776,1.776,0,0,0-.377,1.031q-.02.317-.02.813,0,.476.02.833a1.906,1.906,0,0,0,.387,1.011A1.219,1.219,0,0,0,11.245,19.81Z" transform="translate(33)" fill="#b2b2b2"/>
    </g>
  </g>
</svg>
