<svg xmlns="http://www.w3.org/2000/svg" xmlns:xlink="http://www.w3.org/1999/xlink" width="64" height="64" viewBox="0 0 64 64">
  <defs>
    <clipPath id="clip-icon-pin">
      <rect width="64" height="64"/>
    </clipPath>
  </defs>
  <g id="icon-pin" clip-path="url(#clip-icon-pin)">
    <g id="icon-location-pin" transform="translate(15 6)">
      <path id="Pfad_166032" data-name="Pfad 166032" d="M210.52,44.8A17.417,17.417,0,0,0,193.2,62.265c0,20.49,15.835,34.612,16.515,35.18a1.183,1.183,0,0,0,1.608,0c.68-.568,16.515-14.69,16.515-35.18A17.417,17.417,0,0,0,210.52,44.8Zm0,50c-3.217-3.152-14.845-15.762-14.845-32.532a14.846,14.846,0,1,1,29.691,0C225.365,79.035,213.736,91.644,210.52,94.8Zm0-42.43a10.089,10.089,0,1,0,9.9,10.088A10.023,10.023,0,0,0,210.52,52.367Zm0,17.653a7.567,7.567,0,1,1,7.423-7.565A7.517,7.517,0,0,1,210.52,70.019Z" transform="translate(-193.2 -44.801)" fill="#b2b2b2"/>
    </g>
  </g>
</svg>
