<svg xmlns="http://www.w3.org/2000/svg" xmlns:xlink="http://www.w3.org/1999/xlink" width="64" height="64" viewBox="0 0 64 64">
  <defs>
    <clipPath id="clip-path">
      <rect id="Rechteck_10995" data-name="Rechteck 10995" width="54.803" height="57.898" fill="#b2b2b2"/>
    </clipPath>
    <clipPath id="clip-icon-geschmack">
      <rect width="64" height="64"/>
    </clipPath>
  </defs>
  <g id="icon-geschmack" clip-path="url(#clip-icon-geschmack)">
    <g id="icon-taste" transform="translate(5 3)">
      <g id="Gruppe_34338" data-name="Gruppe 34338" clip-path="url(#clip-path)">
        <path id="Pfad_166028" data-name="Pfad 166028" d="M73.355,79.713,69.013,75.47a9.115,9.115,0,0,0,2.072-7.9c-.715-2.944-3.508-7.08-12.756-10.068l-.621-.2-8.792,8.592.207.608C52.706,76.993,57.779,79.2,61.4,79.2h0a9.874,9.874,0,0,0,6.111-2.258l4.34,4.241-2.914,2.847,1.5,1.466,7.327-7.16-1.5-1.466ZM53.323,70.88A13.473,13.473,0,0,0,55.037,71a14.31,14.31,0,0,0,4.221-.711,8.409,8.409,0,0,1,6.476.217l.786-1.926a10.533,10.533,0,0,0-7.858-.281,11.164,11.164,0,0,1-6.469.276c-.293-.673-.577-1.377-.846-2.124l6.932-6.773c6.213,2.11,9.921,5,10.741,8.373a7.281,7.281,0,0,1-2.219,6.73,7.882,7.882,0,0,1-5.4,2.346c-3.05,0-5.832-2.182-8.08-6.242" transform="translate(-22.966 -27.595)" fill="#b2b2b2"/>
        <path id="Pfad_166029" data-name="Pfad 166029" d="M.206,2.078a19.344,19.344,0,0,1,6.11,1.05A18.8,18.8,0,0,1,17.754,14a18.164,18.164,0,0,1,1.138,4.581l.03.262.1.245a123.19,123.19,0,0,1,4.55,11.85,5.758,5.758,0,0,1,.092.6l-4.646.007-.1,1.782a28.266,28.266,0,0,1-1.28,7.784,32.852,32.852,0,0,1-7.34.224L8.254,41.23v6.758h2.122V43.422c1.206.058,7.291.3,8.58-.645,1.481-1.085,1.99-7.943,2.069-9.156l2.7,0a2.183,2.183,0,0,0,1.7-.569,2.982,2.982,0,0,0,.225-2.505c-.384-1.92-3.649-9.8-4.657-12.213a20.191,20.191,0,0,0-1.264-5.069A20.893,20.893,0,0,0,7.022,1.172,21.528,21.528,0,0,0,0,0V2.074c.069,0,.137,0,.206,0" transform="translate(0 0)" fill="#b2b2b2"/>
      </g>
    </g>
  </g>
</svg>
