<svg fill="#F1AD26" height="800px" width="800px" version="1.1" id="Capa_1" xmlns="http://www.w3.org/2000/svg" xmlns:xlink="http://www.w3.org/1999/xlink" 
	 viewBox="0 0 205.613 205.613" xml:space="preserve">
<g>
	<path d="M157.635,40.869c-11.107,0-21.014,5.221-27.412,13.332c-5.016-6.357-12.185-10.941-20.406-12.625
		C106.502,18.115,86.299,0.004,61.936,0h-0.002c-4.141,0-7.498,3.357-7.5,7.5c0,4.142,3.357,7.5,7.5,7.5
		c16.164,0.002,29.678,11.557,32.723,26.838c-7.742,1.859-14.484,6.301-19.268,12.363C68.99,46.09,59.082,40.869,47.973,40.869
		c-19.25,0-34.912,15.662-34.912,34.914c0,17.527,12.982,32.074,29.834,34.543c-1.557,3.953-2.422,8.254-2.422,12.754
		c0,17.479,12.914,31.998,29.703,34.521c-1.642,4.047-2.557,8.465-2.557,13.094c0,19.254,15.662,34.918,34.912,34.918
		c19.254,0,34.918-15.664,34.918-34.918c0-4.604-0.904-8.998-2.531-13.027c17.037-2.301,30.217-16.93,30.217-34.588
		c0-4.5-0.865-8.801-2.422-12.754c16.855-2.467,29.84-17.016,29.84-34.543C192.553,56.531,176.889,40.869,157.635,40.869z
		 M102.803,55.869c10.986,0,19.922,8.934,19.922,19.914c0,6.695-3.33,12.613-8.412,16.226c-1.07,0.551-2.109,1.154-3.113,1.809
		c-2.557,1.193-5.395,1.881-8.397,1.881c-3,0-5.836-0.686-8.391-1.881c-1.004-0.654-2.043-1.258-3.113-1.809
		c-5.08-3.611-8.41-9.531-8.41-16.226C82.889,64.803,91.822,55.869,102.803,55.869z M28.06,75.783
		c0-10.981,8.934-19.914,19.912-19.914c10.982,0,19.916,8.934,19.916,19.914c0,6.695-3.33,12.615-8.41,16.226
		c-1.07,0.551-2.109,1.154-3.113,1.809c-2.555,1.193-5.391,1.881-8.393,1.881C36.994,95.699,28.06,86.766,28.06,75.783z
		 M55.473,123.08c0-6.697,3.332-12.621,8.412-16.234c1.072-0.551,2.111-1.154,3.115-1.809c2.553-1.193,5.389-1.879,8.389-1.879
		s5.836,0.685,8.389,1.879c1.004,0.654,2.043,1.258,3.113,1.809c5.082,3.613,8.412,9.537,8.412,16.234
		c0,10.98-8.934,19.912-19.914,19.912C64.408,142.992,55.473,134.061,55.473,123.08z M102.531,190.613
		c-10.979,0-19.912-8.936-19.912-19.918c0-10.982,8.934-19.916,19.912-19.916c10.982,0,19.918,8.934,19.918,19.916
		C122.449,181.678,113.514,190.613,102.531,190.613z M130.225,142.992c-10.984,0-19.922-8.932-19.922-19.912
		c0-6.697,3.332-12.619,8.414-16.232c1.072-0.551,2.111-1.154,3.115-1.811c2.555-1.193,5.393-1.879,8.393-1.879
		c2.998,0,5.834,0.685,8.387,1.879c1.004,0.654,2.043,1.258,3.113,1.809c5.08,3.615,8.41,9.537,8.41,16.234
		C150.135,134.061,141.203,142.992,130.225,142.992z M157.635,95.699c-3,0-5.834-0.686-8.389-1.879
		c-1.004-0.656-2.043-1.26-3.113-1.811c-5.078-3.611-8.408-9.531-8.408-16.226c0-10.981,8.932-19.914,19.91-19.914
		c10.982,0,19.918,8.934,19.918,19.914C177.553,86.766,168.617,95.699,157.635,95.699z"/>
</g>
</svg>