<svg xmlns="http://www.w3.org/2000/svg" xmlns:xlink="http://www.w3.org/1999/xlink" width="64" height="64" viewBox="0 0 64 64">
  <defs>
    <clipPath id="clip-path">
      <rect id="Rechteck_10983" data-name="Rechteck 10983" width="54.572" height="53.635" fill="#b2b2b2"/>
    </clipPath>
    <clipPath id="clip-icon-rebsorten">
      <rect width="64" height="64"/>
    </clipPath>
  </defs>
  <g id="icon-rebsorten" clip-path="url(#clip-icon-rebsorten)">
    <g id="icon-wine-type" transform="translate(5 5)">
      <g id="Gruppe_34319" data-name="Gruppe 34319" clip-path="url(#clip-path)">
        <path id="Pfad_165993" data-name="Pfad 165993" d="M9.381,32.177a4.148,4.148,0,0,1-.012.6c-.006.1-.013.2-.017.3l-.043.991,1.053.014c.366,0,.9-.039,1.523-.085.719-.052,1.533-.113,2.145-.113.231,0,.385.009.482.018a.529.529,0,0,1,.025.387,15.149,15.149,0,0,1-.744,1.788l-1.006,2.086,2.181-.756a24.385,24.385,0,0,0,6.892-3.52.084.084,0,0,1,.058.026l.59.584.661-.5a7.336,7.336,0,0,0,2.149-2.858q.013,1.227-.046,2.373l-.241,2.717a23.055,23.055,0,0,1-3,9.065.952.952,0,0,0-.193.313,13.381,13.381,0,0,1-5.915,5.242A9.674,9.674,0,0,1,4.349,48.129c-1.191-1.669-1.41-3.263-.616-4.491a3.623,3.623,0,0,1,3.678-1.483c1.531.319,2.562,1.613,2.9,3.645a.958.958,0,1,0,1.889-.322c-.476-2.827-2.082-4.726-4.4-5.209a5.525,5.525,0,0,0-5.674,2.319c-1.236,1.911-.993,4.339.691,6.7A11.308,11.308,0,0,0,11.8,53.635a12.425,12.425,0,0,0,4.878-1.015,15.3,15.3,0,0,0,6.794-6.02c1.729-1.3,3.343-1.555,4.556-.707,1.462,1.022,2.015,3.381,1.315,5.608a.958.958,0,1,0,1.827.58c.961-3.059.119-6.253-2.048-7.769a4.746,4.746,0,0,0-4.112-.635,26.308,26.308,0,0,0,1.7-5.8c.161-.115.473-.3.679-.424a8.373,8.373,0,0,0,.97-.631c.167.291.365.676.492.925.178.345.331.643.454.837l.528.838.965-.658h0a10.626,10.626,0,0,0,5.254,2.144l1.969.278-1.011-1.721a16.864,16.864,0,0,1-1.114-2.129l1.221-.174-.537-1.174a11.379,11.379,0,0,1-.434-1.307,15.989,15.989,0,0,1,3.01,1.3L41.069,37.3l-.437-2.289c-.024-.128-.049-.246-.071-.355-.027-.13-.059-.282-.075-.388a28.85,28.85,0,0,1,5.418-.983l2.48-.328L46.32,31.534a29.057,29.057,0,0,1-4.388-3.341c.062-.088.16-.21.242-.314.068-.087.143-.18.222-.283l1.421-1.842-2.3.3a4.407,4.407,0,0,1-.541.026,20.029,20.029,0,0,1-2.729-.234,11.283,11.283,0,0,1,.975-.967l1.006-.8-1.01-.71a16.723,16.723,0,0,1,1.952-1.392L42.848,20.9l-1.881-.648a12.507,12.507,0,0,0-3.888-.7,6.542,6.542,0,0,0-1.763.22h0l-.087-.159a29.253,29.253,0,0,0,1.993-4.569l.753-2.192L35.9,13.861a15.065,15.065,0,0,1-1.78.749.529.529,0,0,1-.388-.027,6,6,0,0,1-.013-.65c4.82-6.343,8.744-8.462,11.035-9.15a6.087,6.087,0,0,1,4.838.287,6.155,6.155,0,0,1,2.838,4.009,7.407,7.407,0,0,1-.709,5.507c-1.3,2-2.985,2.076-4.128,1.479a2.707,2.707,0,0,1-1.364-3.4,2.325,2.325,0,0,1,1.345-1.317A.962.962,0,0,0,46.9,9.537a4.249,4.249,0,0,0-2.456,2.406,4.607,4.607,0,0,0,2.26,5.828c1.942,1.015,4.743.75,6.616-2.135a9.28,9.28,0,0,0,.967-7.013,8.056,8.056,0,0,0-3.755-5.229A7.936,7.936,0,0,0,44.2,2.937c-3.332,1-6.827,3.649-10.295,7.725,0-.117.005-.223,0-.316L33.9,9.355l-.985.043c-.1,0-.194.011-.294.017a4.741,4.741,0,0,1-.6.011C31.39,6.41,28.642,3.24,26.27,1.272L24.735,0,24.7,2c-.062,3.643-.352,4.791-.515,5.15-.114-.044-.26-.112-.37-.162s-.2-.092-.3-.136l-1.179-.514-.154,1.282a23.407,23.407,0,0,1-.946,3.651,31.107,31.107,0,0,1-4.225-5.794l-.951-2.126L15.244,5.53c-.078.208-.148.4-.211.579-.37,1.033-.431,1.082-.682,1.138-1.454,0-7.463-2.694-9.438-3.579L2.629,2.643l1.019,2.3c3.074,6.925,3.632,9,3.563,9.511-.058.225-.105.285-1.133.658-.178.064-.369.134-.577.212l-2.17.823,2.115.956a30.962,30.962,0,0,1,5.766,4.245,23.191,23.191,0,0,1-3.633.951L6.3,22.449l.512,1.185c.044.1.09.2.135.3s.118.257.162.372c-.357.164-1.5.455-5.125.517L0,24.859,1.265,26.4c1.952,2.376,5.092,5.127,8.116,5.777m4.97-23a2,2,0,0,0,.507-.059,2.218,2.218,0,0,0,1.446-1.1c1.486,2.262,4.07,5.633,5.189,5.632l.145,0,.116-.03c1.055-.27,1.77-2.943,2.109-4.553a1.953,1.953,0,0,0,.46.057c1.553,0,2.059-1.614,2.229-4.98,1.629,1.65,3.207,3.778,3.595,5.713a1.806,1.806,0,0,0,1.8,1.5c-.011.146-.022.3-.033.454-.189,2.6-.205,3.554.357,4.082a2.478,2.478,0,0,0,2.351.579A21.314,21.314,0,0,1,32.685,20.1c-.129.091-.261.183-.383.264-.048-.274-.077-.535-.1-.727l-.23-2.3-1.463,1.789a15.151,15.151,0,0,0-2.257,3.6l-.5-.118-.3.776a4.291,4.291,0,0,0-.26,1.687c-.535.139-1.007.233-1.37.295l-9.86-8.318L24.543,26.7c-.138,1.117-.617,3.833-2.079,5.351a2.007,2.007,0,0,0-1.8.313A19.611,19.611,0,0,1,16.386,34.8a2.482,2.482,0,0,0-.577-2.363,2.313,2.313,0,0,0-1.78-.477c-.682,0-1.533.063-2.285.118l-.455.033A1.793,1.793,0,0,0,9.8,30.3c-1.928-.39-4.048-1.979-5.689-3.617,3.3-.179,4.257-.644,4.717-1.382a1.647,1.647,0,0,0,.183-1.316c1.6-.339,4.263-1.058,4.532-2.119.127-.5.258-1.017-2.928-3.564C9.836,17.674,8.886,16.962,8,16.37a2.219,2.219,0,0,0,1.069-1.439c.231-.9-.157-2.663-2.674-8.507,4.45,1.937,6.816,2.747,7.959,2.747m19.8,12.247a1.352,1.352,0,0,0,.943.372,1.542,1.542,0,0,0,.53-.1,5.836,5.836,0,0,1,2.734-.112c-.966.756-1.3,1.284-1.31,1.879a1.291,1.291,0,0,0,.162.647c-.734.724-1.661,1.825-1.426,2.587.3.96,2.665,1.22,4.2,1.288a1.75,1.75,0,0,0,.069.753c.171.559.769,1.237,3.185,2.984-2.941.459-3.779.791-4.184,1.213a1.726,1.726,0,0,0-.406.656,13.154,13.154,0,0,0-3.511-1.1,1.084,1.084,0,0,0-.808.321c-.553.572-.222,1.976.106,2.955a1.286,1.286,0,0,0-.436.5c-.263.533-.2,1.158.322,2.271A5.8,5.8,0,0,1,31.935,37.2a1.41,1.41,0,0,0-1.055-.479,1.478,1.478,0,0,0-.383.051c-.67-1.3-1.007-1.882-1.628-2.009a1.829,1.829,0,0,0-1.733.58c-.025.021-.064.049-.111.081l.29-3.267a5.638,5.638,0,0,1,1.964-3.19l4.527.424L29.684,27.3a5.669,5.669,0,0,1-.566-2.72,1.543,1.543,0,0,0,.805-.854,10.119,10.119,0,0,1,.953-1.844,1.837,1.837,0,0,0,.919.592l.159.039h.13c.5,0,.994-.317,2.069-1.091m-6.627,5.56c.084.274.173.53.259.748-.206.2-.433.431-.661.692-.03-.434-.067-.874-.109-1.32q.247-.053.511-.119" fill="#F1AD26"/>
      </g>
    </g>
  </g>
</svg>
