<svg xmlns="http://www.w3.org/2000/svg" xmlns:xlink="http://www.w3.org/1999/xlink" width="64" height="64" viewBox="0 0 64 64">
  <defs>
    <clipPath id="clip-icon-jahrgang">
      <rect width="64" height="64"/>
    </clipPath>
  </defs>
  <g id="icon-jahrgang" clip-path="url(#clip-icon-jahrgang)">
    <g id="Gruppe_34618" data-name="Gruppe 34618" transform="translate(-5378 3112)">
      <g id="calendar-svgrepo-com" transform="translate(5385 -3107)">
        <path id="Pfad_166174" data-name="Pfad 166174" d="M37.084,31.463h8.561V21H9.5V48.584H28.523V31.463h8.561Zm0-8.561h6.658v6.658H37.084Zm-17.121,0h6.658v6.658H19.963Zm-8.561,0h6.658v6.658H11.4Zm0,8.561h6.658v6.658H11.4Zm6.658,15.219H11.4V40.023h6.658Zm8.561,0H19.963V40.023h6.658Zm0-8.561H19.963V31.463h6.658Zm1.9-8.561V22.9h6.658v6.658Z" transform="translate(-2.842 -1.025)" fill="#b2b2b2"/>
        <path id="Pfad_166175" data-name="Pfad 166175" d="M27.23,52.314H4.4v-37.1H50.059v16.17a.951.951,0,0,0,1.9,0V4.756A.95.95,0,0,0,51.01,3.8H46.254V.951A.95.95,0,0,0,45.3,0H38.645a.95.95,0,0,0-.951.951V3.8H16.768V.951A.95.95,0,0,0,15.816,0H9.158a.95.95,0,0,0-.951.951V3.8H3.451a.95.95,0,0,0-.951.951v48.51a.95.95,0,0,0,.951.951H27.23a.951.951,0,0,0,0-1.9ZM39.6,1.9h4.756V7.609H39.6V1.9Zm-29.486,0h4.756V7.609H10.109V1.9ZM4.4,5.707h3.8V8.561a.95.95,0,0,0,.951.951h6.658a.95.95,0,0,0,.951-.951V5.707H37.693V8.561a.95.95,0,0,0,.951.951H45.3a.95.95,0,0,0,.951-.951V5.707h3.8v7.609H4.4Z" transform="translate(-2.5)" fill="#b2b2b2"/>
      </g>
      <g id="Pfad_166178" data-name="Pfad 166178" transform="translate(5417.438 -3072.758)" fill="none">
        <path d="M-.1,0H13.219a32.337,32.337,0,0,1,1.9,9.994,32.211,32.211,0,0,1-1.9,9.981H-.1A35.173,35.173,0,0,1-2,9.71,29.537,29.537,0,0,1-.1,0Z" stroke="none"/>
        <path d="M 1.318986892700195 1.999994277954102 C 0.7985038757324219 3.626775741577148 -2.86102294921875e-06 6.62540340423584 -2.86102294921875e-06 9.709895133972168 C -2.86102294921875e-06 12.85326194763184 0.8358345031738281 16.1852970123291 1.363180160522461 17.97460556030273 L 11.77868843078613 17.97460556030273 C 12.30307579040527 16.2646427154541 13.12109661102295 13.0992431640625 13.12109661102295 9.993544578552246 C 13.12109661102295 6.885774612426758 12.3021125793457 3.712820053100586 11.7777795791626 1.999994277954102 L 1.318986892700195 1.999994277954102 M -0.09765338897705078 -5.7220458984375e-06 L 13.21874713897705 -5.7220458984375e-06 C 13.21874713897705 -5.7220458984375e-06 15.12109661102295 4.999895095825195 15.12109661102295 9.993544578552246 C 15.12109661102295 14.9871940612793 13.21874713897705 19.97460556030273 13.21874713897705 19.97460556030273 L -0.09765338897705078 19.97460556030273 C -0.09765338897705078 19.97460556030273 -2.000002861022949 14.70354461669922 -2.000002861022949 9.709895133972168 C -2.000002861022949 4.716244697570801 -0.09765338897705078 -5.7220458984375e-06 -0.09765338897705078 -5.7220458984375e-06 Z" stroke="none" fill="#C8102E"/>
      </g>
      <line id="Linie_1" data-name="Linie 1" x2="14.268" transform="translate(5416.864 -3066.575)" fill="none" stroke="#b2b2b2" stroke-width="2"/>
      <line id="Linie_2" data-name="Linie 2" x2="14.268" transform="translate(5416.864 -3058.966)" fill="none" stroke="#b2b2b2" stroke-width="2"/>
    </g>
  </g>
</svg>
